<?xml version="1.0" encoding="UTF-8"?>
<svg version="1.1" xmlns="http://www.w3.org/2000/svg" width="1600" height="1600">
<path d="M0 0 C1.53479205 -0.00872064 1.53479205 -0.00872064 3.10058999 -0.01761746 C6.5574171 -0.03231077 10.01354453 -0.01828832 13.47036743 -0.00457001 C15.96235202 -0.00917521 18.45433389 -0.01552555 20.94631004 -0.02347898 C26.37888747 -0.03673927 31.81124764 -0.03747251 37.24382782 -0.02729034 C45.32206526 -0.01219046 53.40016811 -0.01987962 61.47840458 -0.03212357 C75.90419118 -0.05321354 90.32990704 -0.05135027 104.75570041 -0.03980792 C117.37973357 -0.02975646 130.00374076 -0.02711386 142.6277771 -0.0318985 C143.4642751 -0.03220404 144.30077309 -0.03250958 145.16261952 -0.03282438 C148.55800548 -0.03406968 151.95339144 -0.03534327 155.34877738 -0.03666343 C187.21779001 -0.04890692 219.08675752 -0.03779373 250.95576319 -0.01627585 C279.28633904 0.00270741 307.61684299 0.00100894 335.94741821 -0.01811981 C367.75712755 -0.03952573 399.56679699 -0.04803871 431.37651253 -0.03567076 C434.76580937 -0.03438783 438.15510622 -0.03313648 441.54440308 -0.0318985 C442.79625387 -0.03142403 442.79625387 -0.03142403 444.07339458 -0.03093999 C456.69130515 -0.02638488 469.30918693 -0.03172089 481.92709351 -0.04181671 C496.27032351 -0.05323558 510.61347152 -0.05043335 524.95669127 -0.02869374 C532.98990575 -0.01692057 541.02294282 -0.01622197 549.05615281 -0.03127843 C555.04308137 -0.04126467 561.02977792 -0.03048807 567.0166924 -0.01138014 C569.44731148 -0.00688833 571.87795414 -0.0092375 574.30855823 -0.01888329 C577.59677831 -0.03093791 580.88401276 -0.01868327 584.17218018 0 C585.12955338 -0.00936466 586.08692658 -0.01872933 587.07331109 -0.02837777 C593.42413903 0.04440939 593.42413903 0.04440939 596.67424917 2.29783106 C598.85001453 5.69674332 598.6370202 9.10035003 598.59402466 13.00580597 C598.60026462 13.87211451 598.60650458 14.73842304 598.61293364 15.63098335 C598.62891217 18.53923992 598.61624041 21.446664 598.60366821 24.35492706 C598.60908717 26.43767537 598.61620855 28.52041985 598.62490845 30.60315704 C598.64317158 36.26426051 598.63606183 41.92507297 598.62339211 47.58618164 C598.61327997 53.50471035 598.62265281 59.4232138 598.62893677 65.34174347 C598.63621837 75.28173048 598.62661195 85.2215987 598.60757446 95.16156769 C598.58580482 106.66101413 598.59285582 118.16017691 598.61488008 129.65961647 C598.63301941 139.52467086 598.63559957 149.38963975 598.62512541 159.25470543 C598.61888243 165.15024084 598.618077 171.04564284 598.63127136 176.94116974 C598.64280783 182.48324899 598.63484425 188.02496177 598.61169434 193.56700134 C598.60639548 195.60359081 598.60794103 197.640211 598.616745 199.67678833 C598.62763756 202.45191935 598.6140132 205.22586797 598.59402466 208.00092316 C598.60294755 208.81142435 598.61187043 209.62192554 598.62106371 210.45698738 C598.57620299 213.65662235 598.42033957 215.98121052 596.67424917 218.70889807 C592.6845247 221.47512173 588.91965647 221.05316715 584.17218018 221.00672913 C582.63738813 221.01544977 582.63738813 221.01544977 581.07159019 221.02434659 C577.61476307 221.0390399 574.15863565 221.02501745 570.70181274 221.01129913 C568.20982816 221.01590434 565.71784628 221.02225468 563.22587013 221.03020811 C557.7932927 221.0434684 552.36093253 221.04420163 546.92835236 221.03401947 C538.85011492 221.01891959 530.77201207 221.02660874 522.69377559 221.0388527 C508.26798899 221.05994266 493.84227314 221.05807939 479.41647977 221.04653705 C466.79244661 221.03648558 454.16843942 221.03384299 441.54440308 221.03862762 C440.70790508 221.03893316 439.87140708 221.03923871 439.00956066 221.0395535 C435.61417469 221.0407988 432.21878874 221.0420724 428.8234028 221.04339256 C396.95439016 221.05563605 365.08542266 221.04452286 333.21641698 221.02300497 C304.88584113 221.00402172 276.55533719 221.00572019 248.22476196 221.02484894 C216.41505263 221.04625486 184.60538319 221.05476784 152.79566765 221.04239988 C149.40637081 221.04111696 146.01707396 221.0398656 142.6277771 221.03862762 C141.3759263 221.03815316 141.3759263 221.03815316 140.09878559 221.03766911 C127.48087503 221.033114 114.86299325 221.03845002 102.24508667 221.04854584 C87.90185667 221.05996471 73.55870865 221.05716248 59.21548891 221.03542286 C51.18227443 221.0236497 43.14923736 221.02295109 35.11602736 221.03800756 C29.12909881 221.04799379 23.14240226 221.03721719 17.15548778 221.01810926 C14.7248687 221.01361746 12.29422604 221.01596662 9.86362195 221.02561241 C6.57540186 221.03766704 3.28816742 221.0254124 0 221.00672913 C-0.9573732 221.01609379 -1.9147464 221.02545846 -2.90113091 221.0351069 C-9.25195886 220.96231973 -9.25195886 220.96231973 -12.502069 218.70889807 C-14.67783436 215.30998581 -14.46484003 211.9063791 -14.42184448 208.00092316 C-14.42808444 207.13461462 -14.43432441 206.26830608 -14.44075346 205.37574577 C-14.456732 202.4674892 -14.44406023 199.56006513 -14.43148804 196.65180206 C-14.43690699 194.56905375 -14.44402837 192.48630927 -14.45272827 190.40357208 C-14.47099141 184.74246862 -14.46388166 179.08165616 -14.45121193 173.42054749 C-14.44109979 167.50201877 -14.45047264 161.58351533 -14.45675659 155.66498566 C-14.4640382 145.72499864 -14.45443178 135.78513043 -14.43539429 125.84516144 C-14.41362464 114.345715 -14.42067565 102.84655222 -14.44269991 91.34711266 C-14.46083924 81.48205826 -14.4634194 71.61708937 -14.45294523 61.7520237 C-14.44670225 55.85648828 -14.44589682 49.96108628 -14.45909119 44.06555939 C-14.47062765 38.52348014 -14.46266408 32.98176735 -14.43951416 27.43972778 C-14.4342153 25.40313832 -14.43576085 23.36651812 -14.44456482 21.3299408 C-14.45545738 18.55480977 -14.44183302 15.78086116 -14.42184448 13.00580597 C-14.43522881 11.79005418 -14.43522881 11.79005418 -14.44888353 10.54974174 C-14.40402281 7.35010678 -14.2481594 5.0255186 -12.502069 2.29783106 C-8.51234452 -0.4683926 -4.74747629 -0.04643803 0 0 Z M173.21109009 44.44086456 C171.16096881 48.19942025 170.95550913 51.65753747 170.92495728 55.89521027 C170.91534973 56.97345566 170.90574219 58.05170105 170.89584351 59.16262054 C170.89159363 60.32307388 170.88734375 61.48352722 170.88296509 62.67914581 C170.87726501 63.87766678 170.87156494 65.07618774 170.86569214 66.31102753 C170.85624709 68.84705473 170.84971012 71.38309418 170.84585571 73.91913605 C170.83615358 77.79052996 170.80512592 81.66139218 170.77359009 85.53266144 C170.76705944 87.99815308 170.76180921 90.46364852 170.75796509 92.92914581 C170.74561829 94.08352646 170.73327148 95.2379071 170.72055054 96.42726898 C170.73748365 102.56441591 171.04138608 107.1175451 174.08609009 112.50336456 C178.89605181 117.15816623 184.56275418 116.65032687 190.91001892 116.64380646 C192.26143464 116.64826314 192.26143464 116.64826314 193.64015168 116.65280986 C196.66551616 116.66149626 199.69084107 116.66300506 202.71621704 116.66449738 C204.8827625 116.66912556 207.04930714 116.67415022 209.21585083 116.67954254 C215.10639167 116.69266778 220.99692112 116.69911165 226.8874743 116.7035532 C230.5667354 116.70648348 234.24599338 116.71058819 237.92525291 116.71505737 C249.43424347 116.72873209 260.94322691 116.7383991 272.45222503 116.74225926 C285.74265581 116.7467413 299.03296199 116.76429611 312.32336265 116.79325986 C322.59353354 116.81486567 332.86367549 116.82496294 343.13386887 116.82630038 C349.26926669 116.82734912 355.40456788 116.83327167 361.53994179 116.85112 C367.31094292 116.86758176 373.08177461 116.86976531 378.85279083 116.86098099 C380.97037141 116.86020962 383.08796102 116.86456636 385.20551872 116.87443924 C388.09761818 116.88713212 390.98911508 116.88129623 393.88121033 116.87085724 C395.13638213 116.88294185 395.13638213 116.88294185 396.41691095 116.89527059 C401.70963329 116.85062938 405.38184608 115.97485124 410.08609009 113.50336456 C413.93420741 109.52697667 414.20863694 105.46355722 414.2472229 100.11151886 C414.25683044 99.03327347 414.26643799 97.95502808 414.27633667 96.84410858 C414.28058655 95.68365524 414.28483643 94.5232019 414.28921509 93.32758331 C414.29491516 92.12906235 414.30061523 90.93054138 414.30648804 89.6957016 C414.31593309 87.15967439 414.32247005 84.62363494 414.32632446 82.08759308 C414.3360266 78.21619917 414.36705426 74.34533695 414.39859009 70.47406769 C414.40512074 68.00857604 414.41037097 65.54308061 414.41421509 63.07758331 C414.43273529 61.34601234 414.43273529 61.34601234 414.45162964 59.57946014 C414.43469652 53.44231322 414.1307941 48.88918403 411.08609009 43.50336456 C406.27612836 38.84856289 400.609426 39.35640226 394.26216125 39.36292267 C392.91074554 39.35846599 392.91074554 39.35846599 391.5320285 39.35391927 C388.50666401 39.34523287 385.48133911 39.34372407 382.45596313 39.34223175 C380.28941768 39.33760357 378.12287304 39.33257891 375.95632935 39.32718658 C370.0657885 39.31406135 364.17525906 39.30761748 358.28470588 39.30317593 C354.60544478 39.30024564 350.92618679 39.29614094 347.24692726 39.29167175 C335.7379367 39.27799703 324.22895327 39.26833002 312.71995515 39.26446986 C299.42952437 39.25998782 286.13921819 39.24243302 272.84881753 39.21346927 C262.57864663 39.19186345 252.30850468 39.18176618 242.0383113 39.18042874 C235.90291349 39.17938001 229.7676123 39.17345746 223.63223839 39.15560913 C217.86123725 39.13914737 212.09040557 39.13696381 206.31938934 39.14574814 C204.20180877 39.1465195 202.08421915 39.14216277 199.96666145 39.13228989 C197.07456199 39.119597 194.1830651 39.1254329 191.29096985 39.13587189 C190.03579804 39.12378728 190.03579804 39.12378728 188.75526923 39.11145854 C182.79955514 39.16169171 177.545221 39.96226262 173.21109009 44.44086456 Z " fill="#DDE0E4" transform="translate(505.9139099121094,901.4966354370117)"/>
<path d="M0 0 C1.53479205 -0.00872064 1.53479205 -0.00872064 3.10058999 -0.01761746 C6.5574171 -0.03231077 10.01354453 -0.01828832 13.47036743 -0.00457001 C15.96235202 -0.00917521 18.45433389 -0.01552555 20.94631004 -0.02347898 C26.37888747 -0.03673927 31.81124764 -0.03747251 37.24382782 -0.02729034 C45.32206526 -0.01219046 53.40016811 -0.01987962 61.47840458 -0.03212357 C75.90419118 -0.05321354 90.32990704 -0.05135027 104.75570041 -0.03980792 C117.37973357 -0.02975646 130.00374076 -0.02711386 142.6277771 -0.0318985 C143.4642751 -0.03220404 144.30077309 -0.03250958 145.16261952 -0.03282438 C148.55800548 -0.03406968 151.95339144 -0.03534327 155.34877738 -0.03666343 C187.21779001 -0.04890692 219.08675752 -0.03779373 250.95576319 -0.01627585 C279.28633904 0.00270741 307.61684299 0.00100894 335.94741821 -0.01811981 C367.75712755 -0.03952573 399.56679699 -0.04803871 431.37651253 -0.03567076 C434.76580937 -0.03438783 438.15510622 -0.03313648 441.54440308 -0.0318985 C442.79625387 -0.03142403 442.79625387 -0.03142403 444.07339458 -0.03093999 C456.69130515 -0.02638488 469.30918693 -0.03172089 481.92709351 -0.04181671 C496.27032351 -0.05323558 510.61347152 -0.05043335 524.95669127 -0.02869374 C532.98990575 -0.01692057 541.02294282 -0.01622197 549.05615281 -0.03127843 C555.04308137 -0.04126467 561.02977792 -0.03048807 567.0166924 -0.01138014 C569.44731148 -0.00688833 571.87795414 -0.0092375 574.30855823 -0.01888329 C577.59677831 -0.03093791 580.88401276 -0.01868327 584.17218018 0 C585.12955338 -0.00936466 586.08692658 -0.01872933 587.07331109 -0.02837777 C593.42413903 0.04440939 593.42413903 0.04440939 596.67424917 2.29783106 C598.85001453 5.69674332 598.6370202 9.10035003 598.59402466 13.00580597 C598.60026462 13.87211451 598.60650458 14.73842304 598.61293364 15.63098335 C598.62891217 18.53923992 598.61624041 21.446664 598.60366821 24.35492706 C598.60908717 26.43767537 598.61620855 28.52041985 598.62490845 30.60315704 C598.64317158 36.26426051 598.63606183 41.92507297 598.62339211 47.58618164 C598.61327997 53.50471035 598.62265281 59.4232138 598.62893677 65.34174347 C598.63621837 75.28173048 598.62661195 85.2215987 598.60757446 95.16156769 C598.58580482 106.66101413 598.59285582 118.16017691 598.61488008 129.65961647 C598.63301941 139.52467086 598.63559957 149.38963975 598.62512541 159.25470543 C598.61888243 165.15024084 598.618077 171.04564284 598.63127136 176.94116974 C598.64280783 182.48324899 598.63484425 188.02496177 598.61169434 193.56700134 C598.60639548 195.60359081 598.60794103 197.640211 598.616745 199.67678833 C598.62763756 202.45191935 598.6140132 205.22586797 598.59402466 208.00092316 C598.60294755 208.81142435 598.61187043 209.62192554 598.62106371 210.45698738 C598.57620299 213.65662235 598.42033957 215.98121052 596.67424917 218.70889807 C592.6845247 221.47512173 588.91965647 221.05316715 584.17218018 221.00672913 C582.63738813 221.01544977 582.63738813 221.01544977 581.07159019 221.02434659 C577.61476307 221.0390399 574.15863565 221.02501745 570.70181274 221.01129913 C568.20982816 221.01590434 565.71784628 221.02225468 563.22587013 221.03020811 C557.7932927 221.0434684 552.36093253 221.04420163 546.92835236 221.03401947 C538.85011492 221.01891959 530.77201207 221.02660874 522.69377559 221.0388527 C508.26798899 221.05994266 493.84227314 221.05807939 479.41647977 221.04653705 C466.79244661 221.03648558 454.16843942 221.03384299 441.54440308 221.03862762 C440.70790508 221.03893316 439.87140708 221.03923871 439.00956066 221.0395535 C435.61417469 221.0407988 432.21878874 221.0420724 428.8234028 221.04339256 C396.95439016 221.05563605 365.08542266 221.04452286 333.21641698 221.02300497 C304.88584113 221.00402172 276.55533719 221.00572019 248.22476196 221.02484894 C216.41505263 221.04625486 184.60538319 221.05476784 152.79566765 221.04239988 C149.40637081 221.04111696 146.01707396 221.0398656 142.6277771 221.03862762 C141.3759263 221.03815316 141.3759263 221.03815316 140.09878559 221.03766911 C127.48087503 221.033114 114.86299325 221.03845002 102.24508667 221.04854584 C87.90185667 221.05996471 73.55870865 221.05716248 59.21548891 221.03542286 C51.18227443 221.0236497 43.14923736 221.02295109 35.11602736 221.03800756 C29.12909881 221.04799379 23.14240226 221.03721719 17.15548778 221.01810926 C14.7248687 221.01361746 12.29422604 221.01596662 9.86362195 221.02561241 C6.57540186 221.03766704 3.28816742 221.0254124 0 221.00672913 C-0.9573732 221.01609379 -1.9147464 221.02545846 -2.90113091 221.0351069 C-9.25195886 220.96231973 -9.25195886 220.96231973 -12.502069 218.70889807 C-14.67783436 215.30998581 -14.46484003 211.9063791 -14.42184448 208.00092316 C-14.42808444 207.13461462 -14.43432441 206.26830608 -14.44075346 205.37574577 C-14.456732 202.4674892 -14.44406023 199.56006513 -14.43148804 196.65180206 C-14.43690699 194.56905375 -14.44402837 192.48630927 -14.45272827 190.40357208 C-14.47099141 184.74246862 -14.46388166 179.08165616 -14.45121193 173.42054749 C-14.44109979 167.50201877 -14.45047264 161.58351533 -14.45675659 155.66498566 C-14.4640382 145.72499864 -14.45443178 135.78513043 -14.43539429 125.84516144 C-14.41362464 114.345715 -14.42067565 102.84655222 -14.44269991 91.34711266 C-14.46083924 81.48205826 -14.4634194 71.61708937 -14.45294523 61.7520237 C-14.44670225 55.85648828 -14.44589682 49.96108628 -14.45909119 44.06555939 C-14.47062765 38.52348014 -14.46266408 32.98176735 -14.43951416 27.43972778 C-14.4342153 25.40313832 -14.43576085 23.36651812 -14.44456482 21.3299408 C-14.45545738 18.55480977 -14.44183302 15.78086116 -14.42184448 13.00580597 C-14.43522881 11.79005418 -14.43522881 11.79005418 -14.44888353 10.54974174 C-14.40402281 7.35010678 -14.2481594 5.0255186 -12.502069 2.29783106 C-8.51234452 -0.4683926 -4.74747629 -0.04643803 0 0 Z M173.21109009 44.44086456 C171.16096881 48.19942025 170.95550913 51.65753747 170.92495728 55.89521027 C170.91534973 56.97345566 170.90574219 58.05170105 170.89584351 59.16262054 C170.89159363 60.32307388 170.88734375 61.48352722 170.88296509 62.67914581 C170.87726501 63.87766678 170.87156494 65.07618774 170.86569214 66.31102753 C170.85624709 68.84705473 170.84971012 71.38309418 170.84585571 73.91913605 C170.83615358 77.79052996 170.80512592 81.66139218 170.77359009 85.53266144 C170.76705944 87.99815308 170.76180921 90.46364852 170.75796509 92.92914581 C170.74561829 94.08352646 170.73327148 95.2379071 170.72055054 96.42726898 C170.73748365 102.56441591 171.04138608 107.1175451 174.08609009 112.50336456 C178.89605181 117.15816623 184.56275418 116.65032687 190.91001892 116.64380646 C192.26143464 116.64826314 192.26143464 116.64826314 193.64015168 116.65280986 C196.66551616 116.66149626 199.69084107 116.66300506 202.71621704 116.66449738 C204.8827625 116.66912556 207.04930714 116.67415022 209.21585083 116.67954254 C215.10639167 116.69266778 220.99692112 116.69911165 226.8874743 116.7035532 C230.5667354 116.70648348 234.24599338 116.71058819 237.92525291 116.71505737 C249.43424347 116.72873209 260.94322691 116.7383991 272.45222503 116.74225926 C285.74265581 116.7467413 299.03296199 116.76429611 312.32336265 116.79325986 C322.59353354 116.81486567 332.86367549 116.82496294 343.13386887 116.82630038 C349.26926669 116.82734912 355.40456788 116.83327167 361.53994179 116.85112 C367.31094292 116.86758176 373.08177461 116.86976531 378.85279083 116.86098099 C380.97037141 116.86020962 383.08796102 116.86456636 385.20551872 116.87443924 C388.09761818 116.88713212 390.98911508 116.88129623 393.88121033 116.87085724 C395.13638213 116.88294185 395.13638213 116.88294185 396.41691095 116.89527059 C401.70963329 116.85062938 405.38184608 115.97485124 410.08609009 113.50336456 C413.93420741 109.52697667 414.20863694 105.46355722 414.2472229 100.11151886 C414.25683044 99.03327347 414.26643799 97.95502808 414.27633667 96.84410858 C414.28058655 95.68365524 414.28483643 94.5232019 414.28921509 93.32758331 C414.29491516 92.12906235 414.30061523 90.93054138 414.30648804 89.6957016 C414.31593309 87.15967439 414.32247005 84.62363494 414.32632446 82.08759308 C414.3360266 78.21619917 414.36705426 74.34533695 414.39859009 70.47406769 C414.40512074 68.00857604 414.41037097 65.54308061 414.41421509 63.07758331 C414.43273529 61.34601234 414.43273529 61.34601234 414.45162964 59.57946014 C414.43469652 53.44231322 414.1307941 48.88918403 411.08609009 43.50336456 C406.27612836 38.84856289 400.609426 39.35640226 394.26216125 39.36292267 C392.91074554 39.35846599 392.91074554 39.35846599 391.5320285 39.35391927 C388.50666401 39.34523287 385.48133911 39.34372407 382.45596313 39.34223175 C380.28941768 39.33760357 378.12287304 39.33257891 375.95632935 39.32718658 C370.0657885 39.31406135 364.17525906 39.30761748 358.28470588 39.30317593 C354.60544478 39.30024564 350.92618679 39.29614094 347.24692726 39.29167175 C335.7379367 39.27799703 324.22895327 39.26833002 312.71995515 39.26446986 C299.42952437 39.25998782 286.13921819 39.24243302 272.84881753 39.21346927 C262.57864663 39.19186345 252.30850468 39.18176618 242.0383113 39.18042874 C235.90291349 39.17938001 229.7676123 39.17345746 223.63223839 39.15560913 C217.86123725 39.13914737 212.09040557 39.13696381 206.31938934 39.14574814 C204.20180877 39.1465195 202.08421915 39.14216277 199.96666145 39.13228989 C197.07456199 39.119597 194.1830651 39.1254329 191.29096985 39.13587189 C190.03579804 39.12378728 190.03579804 39.12378728 188.75526923 39.11145854 C182.79955514 39.16169171 177.545221 39.96226262 173.21109009 44.44086456 Z " fill="#DDE0E4" transform="translate(507.9139099121094,661.4966354370117)"/>
<path d="M0 0 C1.53479205 -0.00872064 1.53479205 -0.00872064 3.10058999 -0.01761746 C6.5574171 -0.03231077 10.01354453 -0.01828832 13.47036743 -0.00457001 C15.96235202 -0.00917521 18.45433389 -0.01552555 20.94631004 -0.02347898 C26.37888747 -0.03673927 31.81124764 -0.03747251 37.24382782 -0.02729034 C45.32206526 -0.01219046 53.40016811 -0.01987962 61.47840458 -0.03212357 C75.90419118 -0.05321354 90.32990704 -0.05135027 104.75570041 -0.03980792 C117.37973357 -0.02975646 130.00374076 -0.02711386 142.6277771 -0.0318985 C143.4642751 -0.03220404 144.30077309 -0.03250958 145.16261952 -0.03282438 C148.55800548 -0.03406968 151.95339144 -0.03534327 155.34877738 -0.03666343 C187.21779001 -0.04890692 219.08675752 -0.03779373 250.95576319 -0.01627585 C279.28633904 0.00270741 307.61684299 0.00100894 335.94741821 -0.01811981 C367.75712755 -0.03952573 399.56679699 -0.04803871 431.37651253 -0.03567076 C434.76580937 -0.03438783 438.15510622 -0.03313648 441.54440308 -0.0318985 C442.79625387 -0.03142403 442.79625387 -0.03142403 444.07339458 -0.03093999 C456.69130515 -0.02638488 469.30918693 -0.03172089 481.92709351 -0.04181671 C496.27032351 -0.05323558 510.61347152 -0.05043335 524.95669127 -0.02869374 C532.98990575 -0.01692057 541.02294282 -0.01622197 549.05615281 -0.03127843 C555.04308137 -0.04126467 561.02977792 -0.03048807 567.0166924 -0.01138014 C569.44731148 -0.00688833 571.87795414 -0.0092375 574.30855823 -0.01888329 C577.59677831 -0.03093791 580.88401276 -0.01868327 584.17218018 0 C585.12955338 -0.00936466 586.08692658 -0.01872933 587.07331109 -0.02837777 C593.42413903 0.04440939 593.42413903 0.04440939 596.67424917 2.29783106 C598.85001453 5.69674332 598.6370202 9.10035003 598.59402466 13.00580597 C598.60026462 13.87211451 598.60650458 14.73842304 598.61293364 15.63098335 C598.62891217 18.53923992 598.61624041 21.446664 598.60366821 24.35492706 C598.60908717 26.43767537 598.61620855 28.52041985 598.62490845 30.60315704 C598.64317158 36.26426051 598.63606183 41.92507297 598.62339211 47.58618164 C598.61327997 53.50471035 598.62265281 59.4232138 598.62893677 65.34174347 C598.63621837 75.28173048 598.62661195 85.2215987 598.60757446 95.16156769 C598.58580482 106.66101413 598.59285582 118.16017691 598.61488008 129.65961647 C598.63301941 139.52467086 598.63559957 149.38963975 598.62512541 159.25470543 C598.61888243 165.15024084 598.618077 171.04564284 598.63127136 176.94116974 C598.64280783 182.48324899 598.63484425 188.02496177 598.61169434 193.56700134 C598.60639548 195.60359081 598.60794103 197.640211 598.616745 199.67678833 C598.62763756 202.45191935 598.6140132 205.22586797 598.59402466 208.00092316 C598.60294755 208.81142435 598.61187043 209.62192554 598.62106371 210.45698738 C598.57620299 213.65662235 598.42033957 215.98121052 596.67424917 218.70889807 C592.6845247 221.47512173 588.91965647 221.05316715 584.17218018 221.00672913 C582.63738813 221.01544977 582.63738813 221.01544977 581.07159019 221.02434659 C577.61476307 221.0390399 574.15863565 221.02501745 570.70181274 221.01129913 C568.20982816 221.01590434 565.71784628 221.02225468 563.22587013 221.03020811 C557.7932927 221.0434684 552.36093253 221.04420163 546.92835236 221.03401947 C538.85011492 221.01891959 530.77201207 221.02660874 522.69377559 221.0388527 C508.26798899 221.05994266 493.84227314 221.05807939 479.41647977 221.04653705 C466.79244661 221.03648558 454.16843942 221.03384299 441.54440308 221.03862762 C440.70790508 221.03893316 439.87140708 221.03923871 439.00956066 221.0395535 C435.61417469 221.0407988 432.21878874 221.0420724 428.8234028 221.04339256 C396.95439016 221.05563605 365.08542266 221.04452286 333.21641698 221.02300497 C304.88584113 221.00402172 276.55533719 221.00572019 248.22476196 221.02484894 C216.41505263 221.04625486 184.60538319 221.05476784 152.79566765 221.04239988 C149.40637081 221.04111696 146.01707396 221.0398656 142.6277771 221.03862762 C141.3759263 221.03815316 141.3759263 221.03815316 140.09878559 221.03766911 C127.48087503 221.033114 114.86299325 221.03845002 102.24508667 221.04854584 C87.90185667 221.05996471 73.55870865 221.05716248 59.21548891 221.03542286 C51.18227443 221.0236497 43.14923736 221.02295109 35.11602736 221.03800756 C29.12909881 221.04799379 23.14240226 221.03721719 17.15548778 221.01810926 C14.7248687 221.01361746 12.29422604 221.01596662 9.86362195 221.02561241 C6.57540186 221.03766704 3.28816742 221.0254124 0 221.00672913 C-0.9573732 221.01609379 -1.9147464 221.02545846 -2.90113091 221.0351069 C-9.25195886 220.96231973 -9.25195886 220.96231973 -12.502069 218.70889807 C-14.67783436 215.30998581 -14.46484003 211.9063791 -14.42184448 208.00092316 C-14.42808444 207.13461462 -14.43432441 206.26830608 -14.44075346 205.37574577 C-14.456732 202.4674892 -14.44406023 199.56006513 -14.43148804 196.65180206 C-14.43690699 194.56905375 -14.44402837 192.48630927 -14.45272827 190.40357208 C-14.47099141 184.74246862 -14.46388166 179.08165616 -14.45121193 173.42054749 C-14.44109979 167.50201877 -14.45047264 161.58351533 -14.45675659 155.66498566 C-14.4640382 145.72499864 -14.45443178 135.78513043 -14.43539429 125.84516144 C-14.41362464 114.345715 -14.42067565 102.84655222 -14.44269991 91.34711266 C-14.46083924 81.48205826 -14.4634194 71.61708937 -14.45294523 61.7520237 C-14.44670225 55.85648828 -14.44589682 49.96108628 -14.45909119 44.06555939 C-14.47062765 38.52348014 -14.46266408 32.98176735 -14.43951416 27.43972778 C-14.4342153 25.40313832 -14.43576085 23.36651812 -14.44456482 21.3299408 C-14.45545738 18.55480977 -14.44183302 15.78086116 -14.42184448 13.00580597 C-14.43522881 11.79005418 -14.43522881 11.79005418 -14.44888353 10.54974174 C-14.40402281 7.35010678 -14.2481594 5.0255186 -12.502069 2.29783106 C-8.51234452 -0.4683926 -4.74747629 -0.04643803 0 0 Z M173.21109009 44.44086456 C171.16096881 48.19942025 170.95550913 51.65753747 170.92495728 55.89521027 C170.91534973 56.97345566 170.90574219 58.05170105 170.89584351 59.16262054 C170.89159363 60.32307388 170.88734375 61.48352722 170.88296509 62.67914581 C170.87726501 63.87766678 170.87156494 65.07618774 170.86569214 66.31102753 C170.85624709 68.84705473 170.84971012 71.38309418 170.84585571 73.91913605 C170.83615358 77.79052996 170.80512592 81.66139218 170.77359009 85.53266144 C170.76705944 87.99815308 170.76180921 90.46364852 170.75796509 92.92914581 C170.74561829 94.08352646 170.73327148 95.2379071 170.72055054 96.42726898 C170.73748365 102.56441591 171.04138608 107.1175451 174.08609009 112.50336456 C178.89605181 117.15816623 184.56275418 116.65032687 190.91001892 116.64380646 C192.26143464 116.64826314 192.26143464 116.64826314 193.64015168 116.65280986 C196.66551616 116.66149626 199.69084107 116.66300506 202.71621704 116.66449738 C204.8827625 116.66912556 207.04930714 116.67415022 209.21585083 116.67954254 C215.10639167 116.69266778 220.99692112 116.69911165 226.8874743 116.7035532 C230.5667354 116.70648348 234.24599338 116.71058819 237.92525291 116.71505737 C249.43424347 116.72873209 260.94322691 116.7383991 272.45222503 116.74225926 C285.74265581 116.7467413 299.03296199 116.76429611 312.32336265 116.79325986 C322.59353354 116.81486567 332.86367549 116.82496294 343.13386887 116.82630038 C349.26926669 116.82734912 355.40456788 116.83327167 361.53994179 116.85112 C367.31094292 116.86758176 373.08177461 116.86976531 378.85279083 116.86098099 C380.97037141 116.86020962 383.08796102 116.86456636 385.20551872 116.87443924 C388.09761818 116.88713212 390.98911508 116.88129623 393.88121033 116.87085724 C395.13638213 116.88294185 395.13638213 116.88294185 396.41691095 116.89527059 C401.70963329 116.85062938 405.38184608 115.97485124 410.08609009 113.50336456 C413.93420741 109.52697667 414.20863694 105.46355722 414.2472229 100.11151886 C414.25683044 99.03327347 414.26643799 97.95502808 414.27633667 96.84410858 C414.28058655 95.68365524 414.28483643 94.5232019 414.28921509 93.32758331 C414.29491516 92.12906235 414.30061523 90.93054138 414.30648804 89.6957016 C414.31593309 87.15967439 414.32247005 84.62363494 414.32632446 82.08759308 C414.3360266 78.21619917 414.36705426 74.34533695 414.39859009 70.47406769 C414.40512074 68.00857604 414.41037097 65.54308061 414.41421509 63.07758331 C414.43273529 61.34601234 414.43273529 61.34601234 414.45162964 59.57946014 C414.43469652 53.44231322 414.1307941 48.88918403 411.08609009 43.50336456 C406.27612836 38.84856289 400.609426 39.35640226 394.26216125 39.36292267 C392.91074554 39.35846599 392.91074554 39.35846599 391.5320285 39.35391927 C388.50666401 39.34523287 385.48133911 39.34372407 382.45596313 39.34223175 C380.28941768 39.33760357 378.12287304 39.33257891 375.95632935 39.32718658 C370.0657885 39.31406135 364.17525906 39.30761748 358.28470588 39.30317593 C354.60544478 39.30024564 350.92618679 39.29614094 347.24692726 39.29167175 C335.7379367 39.27799703 324.22895327 39.26833002 312.71995515 39.26446986 C299.42952437 39.25998782 286.13921819 39.24243302 272.84881753 39.21346927 C262.57864663 39.19186345 252.30850468 39.18176618 242.0383113 39.18042874 C235.90291349 39.17938001 229.7676123 39.17345746 223.63223839 39.15560913 C217.86123725 39.13914737 212.09040557 39.13696381 206.31938934 39.14574814 C204.20180877 39.1465195 202.08421915 39.14216277 199.96666145 39.13228989 C197.07456199 39.119597 194.1830651 39.1254329 191.29096985 39.13587189 C190.03579804 39.12378728 190.03579804 39.12378728 188.75526923 39.11145854 C182.79955514 39.16169171 177.545221 39.96226262 173.21109009 44.44086456 Z " fill="#DDE0E4" transform="translate(505.9139099121094,421.4966354370117)"/>
<path d="M0 0 C219.12 0 438.24 0 664 0 C664 17.49 664 34.98 664 53 C444.88 53 225.76 53 0 53 C0 35.51 0 18.02 0 0 Z " fill="#DDE0E4" transform="translate(467,349)"/>
<path d="M0 0 C186.45 0 372.9 0 565 0 C565 17.16 565 34.32 565 52 C378.55 52 192.1 52 0 52 C0 34.84 0 17.68 0 0 Z " fill="#DDE0E4" transform="translate(517,1139)"/>
</svg>
