<svg width="296" height="300" viewBox="0 0 296 300" fill="none" xmlns="http://www.w3.org/2000/svg">
<path opacity="0.7" d="M43.3073 276.38C101.047 307.692 194.662 307.699 252.402 276.38C310.141 245.06 310.141 194.278 252.402 162.958C194.662 131.639 101.047 131.639 43.3073 162.958C-14.4323 194.278 -14.4393 245.06 43.3073 276.38Z" fill="#F0F0F0"/>
<path d="M78.8049 206.119C100.849 206.119 118.719 197.603 118.719 187.097C118.719 176.591 100.849 168.074 78.8049 168.074C56.7611 168.074 38.8911 176.591 38.8911 187.097C38.8911 197.603 56.7611 206.119 78.8049 206.119Z" fill="#E0E0E0"/>
<path d="M28.6449 185.858L33.1311 183.297C33.1311 183.297 35.2867 171.441 33.677 161.251C31.4094 146.917 21.6532 141.976 18.1118 143.397C14.5704 144.817 13.7376 149.066 20.1344 157.345C23.9417 162.216 28.7709 172.56 28.6449 185.858Z" fill="#00904F"/>
<g opacity="0.1">
<path d="M28.6449 185.858L33.1311 183.297C33.1311 183.297 35.2867 171.441 33.677 161.251C31.4094 146.917 21.6532 141.976 18.1118 143.397C14.5704 144.817 13.7376 149.066 20.1344 157.345C23.9417 162.216 28.7709 172.56 28.6449 185.858Z" fill="black"/>
</g>
<path d="M30.2756 180.168H30.2406C30.157 180.154 30.0819 180.109 30.031 180.041C29.9802 179.973 29.9575 179.888 29.9676 179.804C31.8083 166.416 26.4123 151.718 20.3514 145.769C20.2938 145.709 20.2618 145.629 20.2621 145.546C20.2624 145.462 20.2949 145.382 20.3529 145.323C20.4109 145.263 20.4898 145.228 20.573 145.225C20.6562 145.222 20.7374 145.252 20.7993 145.307C26.9722 151.34 32.4732 166.304 30.5975 179.895C30.5857 179.972 30.5467 180.042 30.4875 180.092C30.4284 180.142 30.3531 180.169 30.2756 180.168Z" fill="white"/>
<path d="M16.2012 193.053C15.5013 193.459 14.0316 192.57 13.4717 192.192C12.5124 191.538 11.7365 190.649 11.2181 189.609C10.6433 188.428 10.4478 187.099 10.6582 185.802C10.7702 185.117 10.9316 184.441 11.1411 183.779L11.708 181.813C11.9344 181.178 12.0319 180.505 11.9949 179.832C11.82 178.488 10.5952 177.544 9.54537 176.732C8.34159 175.836 7.09581 174.632 7.10281 173.029C7.18352 171.777 7.67558 170.586 8.50256 169.642C9.27242 168.662 10.1893 167.801 10.8891 166.766C11.4376 166.044 11.7262 165.159 11.708 164.253C11.63 163.697 11.442 163.161 11.1551 162.678C10.4993 161.677 9.9259 160.623 9.44039 159.529C9.04146 158.395 9.09745 156.988 9.98629 156.176C10.3821 155.878 10.834 155.662 11.3149 155.542C11.7958 155.422 12.2961 155.4 12.7858 155.477C13.7054 155.586 14.5895 155.897 15.3753 156.386C17.9439 157.786 19.4136 160.852 22.1361 161.985C23.2204 162.319 24.3235 162.587 25.4395 162.79C25.9937 162.893 26.5202 163.111 26.9855 163.429C27.4507 163.747 27.8443 164.159 28.141 164.638C29.1418 166.64 27.2872 169.096 27.994 171.224C28.6169 173.099 30.4366 173.813 31.4934 175.507C31.9086 176.255 32.0753 177.115 31.9693 177.964C31.8844 179.401 31.5357 180.81 30.9405 182.121C30.2722 183.421 29.5097 184.67 28.6589 185.858C28.6029 185.9 16.3062 193.011 16.2012 193.053Z" fill="#00904F"/>
<path d="M23.4799 189.169C23.4379 189.168 23.3966 189.158 23.3582 189.141C23.3199 189.124 23.2854 189.1 23.2567 189.069C23.228 189.038 23.2057 189.002 23.1912 188.963C23.1766 188.923 23.1701 188.882 23.172 188.84C23.6969 176.137 17.7129 162.118 13.3737 158.045C13.3434 158.017 13.319 157.982 13.3019 157.945C13.2847 157.907 13.2753 157.866 13.274 157.824C13.2727 157.783 13.2796 157.741 13.2943 157.702C13.309 157.663 13.3312 157.628 13.3597 157.597C13.3882 157.567 13.4224 157.542 13.4603 157.525C13.4983 157.508 13.5392 157.499 13.5808 157.497C13.6224 157.496 13.6638 157.503 13.7027 157.518C13.7417 157.533 13.7773 157.555 13.8076 157.583C18.2448 161.733 24.3547 175.99 23.8158 188.861C23.815 188.903 23.8055 188.945 23.788 188.984C23.7704 189.023 23.7452 189.058 23.7138 189.086C23.6824 189.115 23.6455 189.137 23.6053 189.151C23.5651 189.166 23.5224 189.171 23.4799 189.169Z" fill="white"/>
<path d="M21.5831 174.17H21.4851C18.4758 173.341 15.3852 172.841 12.2678 172.679C12.1914 172.668 12.1217 172.63 12.0713 172.571C12.0209 172.513 11.9932 172.438 11.9932 172.361C11.9932 172.284 12.0209 172.209 12.0713 172.151C12.1217 172.092 12.1914 172.054 12.2678 172.043C15.4394 172.205 18.584 172.712 21.6461 173.554C21.7197 173.577 21.7828 173.625 21.824 173.69C21.8652 173.755 21.8818 173.832 21.8709 173.908C21.8599 173.984 21.822 174.054 21.764 174.105C21.7061 174.155 21.632 174.184 21.5551 174.184L21.5831 174.17Z" fill="white"/>
<path d="M247.74 250.477C250.155 245.228 258.938 236.102 267.512 231.791C276.085 227.48 286.926 226.43 292.056 231.301C296.829 235.836 292.805 242.982 283.658 244.752C274.51 246.523 261.36 247.965 254.431 255.09L243.296 262.62L247.74 250.477Z" fill="#00904F"/>
<path opacity="0.1" d="M247.74 250.477C250.155 245.228 258.938 236.102 267.512 231.791C276.085 227.48 286.926 226.43 292.056 231.301C296.829 235.836 292.805 242.982 283.658 244.752C274.51 246.523 261.36 247.965 254.431 255.09L243.296 262.62L247.74 250.477Z" fill="black"/>
<path d="M244.059 257.476C244.146 257.508 244.24 257.511 244.328 257.484C244.417 257.458 244.494 257.403 244.549 257.329C256.286 241.029 277.443 233.128 287.605 233.891C287.717 233.898 287.828 233.861 287.913 233.788C287.998 233.715 288.051 233.611 288.06 233.499C288.064 233.443 288.057 233.388 288.039 233.336C288.021 233.283 287.994 233.235 287.957 233.193C287.921 233.152 287.876 233.118 287.827 233.093C287.777 233.069 287.723 233.054 287.668 233.051C277.324 232.267 255.775 240.287 243.863 256.846C243.831 256.891 243.808 256.942 243.795 256.996C243.782 257.05 243.781 257.106 243.79 257.161C243.799 257.215 243.819 257.268 243.848 257.315C243.877 257.362 243.916 257.402 243.961 257.434C243.991 257.455 244.024 257.469 244.059 257.476Z" fill="white"/>
<path d="M241.469 270.165C243.667 267.603 249.504 264.391 257.175 263.047C265.664 261.556 274.755 263.257 278.227 260.661C282.391 257.539 280.69 252.003 273.699 249.785C266.707 247.566 250.911 251.254 242.806 263.999L241.469 270.165Z" fill="#00904F"/>
<path d="M241.602 266.498C241.679 266.526 241.763 266.531 241.842 266.512C241.922 266.493 241.994 266.452 242.05 266.393C254.585 253.571 268.765 253.564 274.511 255.349C274.563 255.365 274.619 255.37 274.674 255.365C274.729 255.36 274.782 255.344 274.831 255.318C274.88 255.292 274.923 255.256 274.958 255.213C274.993 255.171 275.019 255.122 275.035 255.069C275.053 255.016 275.059 254.961 275.055 254.906C275.051 254.851 275.035 254.797 275.01 254.749C274.984 254.7 274.949 254.656 274.907 254.621C274.864 254.586 274.815 254.56 274.762 254.544C268.408 252.57 254.242 252.717 241.441 265.805C241.402 265.844 241.371 265.89 241.35 265.941C241.329 265.992 241.318 266.047 241.318 266.102C241.318 266.157 241.329 266.212 241.35 266.263C241.371 266.314 241.402 266.361 241.441 266.4C241.487 266.444 241.542 266.478 241.602 266.498Z" fill="white"/>
<path d="M114.394 204.37L122.61 209.108L119.874 210.69H130.82V204.37L128.083 205.952L119.874 201.206L114.394 204.37Z" fill="#00904F"/>
<path d="M135.6 214.126C135.482 214.126 135.366 214.095 135.264 214.035L133.22 212.852C133.072 212.758 132.964 212.612 132.919 212.442C132.873 212.272 132.893 212.091 132.975 211.935C133.068 211.784 133.216 211.674 133.387 211.627C133.559 211.58 133.742 211.6 133.899 211.683L135.943 212.866C136.056 212.95 136.142 213.066 136.189 213.2C136.235 213.333 136.24 213.477 136.203 213.614C136.166 213.75 136.089 213.872 135.981 213.963C135.873 214.055 135.74 214.112 135.6 214.126Z" fill="#00904F"/>
<path d="M221.705 263.838C221.587 263.839 221.471 263.807 221.369 263.747L217.429 261.473C217.316 261.363 217.243 261.218 217.223 261.061C217.203 260.905 217.235 260.746 217.316 260.611C217.397 260.476 217.522 260.372 217.669 260.316C217.817 260.26 217.979 260.256 218.129 260.304L222.062 262.578C222.176 262.662 222.262 262.777 222.308 262.91C222.355 263.043 222.361 263.187 222.324 263.323C222.288 263.459 222.212 263.581 222.105 263.673C221.998 263.765 221.866 263.822 221.726 263.838H221.705ZM212.138 258.309C212.021 258.31 211.905 258.281 211.802 258.225L207.862 255.951C207.761 255.919 207.669 255.864 207.592 255.792C207.516 255.719 207.457 255.63 207.419 255.531C207.382 255.432 207.367 255.327 207.377 255.221C207.386 255.116 207.419 255.015 207.473 254.924C207.528 254.833 207.602 254.756 207.69 254.698C207.778 254.64 207.878 254.603 207.983 254.59C208.088 254.576 208.194 254.586 208.294 254.619C208.395 254.653 208.486 254.708 208.562 254.782L212.502 257.056C212.613 257.141 212.697 257.257 212.742 257.389C212.786 257.521 212.791 257.664 212.754 257.799C212.717 257.933 212.641 258.054 212.535 258.145C212.429 258.236 212.298 258.293 212.159 258.309H212.138ZM202.571 252.787C202.453 252.787 202.337 252.756 202.235 252.696L198.294 250.401C198.146 250.306 198.038 250.16 197.993 249.99C197.947 249.82 197.968 249.639 198.05 249.484C198.144 249.333 198.292 249.224 198.463 249.179C198.635 249.134 198.817 249.155 198.973 249.239L202.914 251.513C203.025 251.598 203.108 251.714 203.153 251.846C203.198 251.978 203.202 252.121 203.166 252.256C203.129 252.39 203.052 252.511 202.946 252.602C202.84 252.693 202.709 252.75 202.571 252.766V252.787ZM193.003 247.265C192.885 247.265 192.769 247.234 192.667 247.174L188.727 244.9C188.579 244.805 188.471 244.659 188.426 244.489C188.38 244.319 188.4 244.138 188.482 243.983C188.575 243.831 188.723 243.721 188.894 243.674C189.066 243.627 189.249 243.647 189.406 243.731L193.339 246.005C193.453 246.089 193.539 246.204 193.585 246.337C193.632 246.47 193.638 246.614 193.602 246.75C193.565 246.886 193.489 247.008 193.382 247.1C193.275 247.192 193.143 247.249 193.003 247.265ZM183.436 241.743C183.318 241.743 183.202 241.712 183.1 241.652L179.16 239.378C179.047 239.268 178.974 239.123 178.954 238.966C178.933 238.81 178.966 238.651 179.047 238.516C179.128 238.381 179.253 238.277 179.4 238.221C179.548 238.165 179.71 238.161 179.86 238.209L183.8 240.483C183.95 240.578 184.059 240.725 184.105 240.897C184.15 241.068 184.129 241.251 184.045 241.407C183.982 241.511 183.892 241.597 183.785 241.656C183.678 241.715 183.558 241.745 183.436 241.743ZM173.869 236.221C173.751 236.22 173.635 236.188 173.533 236.13L169.593 233.856C169.492 233.824 169.4 233.769 169.323 233.697C169.247 233.624 169.187 233.535 169.15 233.436C169.113 233.337 169.098 233.232 169.108 233.126C169.117 233.021 169.15 232.92 169.204 232.829C169.258 232.738 169.332 232.661 169.421 232.603C169.509 232.545 169.609 232.508 169.714 232.495C169.819 232.481 169.925 232.491 170.025 232.524C170.125 232.558 170.217 232.613 170.293 232.687L174.233 234.961C174.381 235.055 174.489 235.202 174.534 235.372C174.58 235.542 174.56 235.723 174.478 235.878C174.415 235.984 174.326 236.071 174.219 236.131C174.112 236.191 173.992 236.222 173.869 236.221ZM164.302 230.692C164.184 230.693 164.069 230.664 163.966 230.608L160.025 228.334C159.912 228.224 159.84 228.079 159.819 227.922C159.799 227.766 159.832 227.607 159.913 227.472C159.994 227.337 160.118 227.233 160.266 227.177C160.413 227.121 160.575 227.117 160.725 227.165L164.666 229.439C164.777 229.524 164.86 229.64 164.905 229.772C164.95 229.904 164.954 230.047 164.917 230.182C164.881 230.316 164.804 230.437 164.698 230.528C164.592 230.619 164.461 230.676 164.323 230.692H164.302ZM154.734 225.205C154.616 225.205 154.5 225.174 154.398 225.114L150.458 222.84C150.31 222.745 150.202 222.599 150.157 222.429C150.111 222.259 150.131 222.078 150.213 221.923C150.306 221.771 150.454 221.661 150.625 221.614C150.797 221.567 150.98 221.587 151.137 221.671L155.077 223.945C155.191 224.029 155.277 224.145 155.323 224.279C155.37 224.412 155.375 224.556 155.338 224.693C155.301 224.829 155.223 224.951 155.115 225.042C155.008 225.134 154.875 225.191 154.734 225.205ZM145.167 219.683C145.049 219.683 144.933 219.652 144.831 219.592L140.891 217.318C140.778 217.208 140.705 217.063 140.685 216.906C140.664 216.75 140.697 216.591 140.778 216.456C140.859 216.321 140.984 216.217 141.131 216.161C141.278 216.105 141.44 216.101 141.591 216.149L145.531 218.423C145.681 218.518 145.79 218.665 145.836 218.837C145.881 219.008 145.86 219.191 145.776 219.347C145.708 219.445 145.617 219.524 145.51 219.576C145.404 219.629 145.286 219.654 145.167 219.648V219.683Z" fill="#00904F"/>
<path d="M229.376 268.261C229.259 268.262 229.143 268.233 229.04 268.177L226.996 266.994C226.848 266.9 226.74 266.754 226.695 266.584C226.649 266.414 226.669 266.233 226.751 266.078C226.844 265.926 226.992 265.816 227.163 265.769C227.335 265.722 227.518 265.742 227.675 265.826L229.712 267.008C229.823 267.092 229.906 267.208 229.952 267.339C229.997 267.471 230.002 267.613 229.966 267.748C229.93 267.882 229.854 268.003 229.749 268.095C229.644 268.186 229.514 268.244 229.376 268.261Z" fill="#00904F"/>
<path d="M270.827 90.0453L270.184 89.7054L250.221 79.2539C245.586 76.4336 240.209 75.0771 234.791 75.3616C227.959 75.6198 221.156 78.3562 213.207 83.181C185.428 99.9753 162.901 146.225 164.026 175.99L164.336 184.194C165.699 220.268 214.809 262.507 214.809 262.507L234.911 273.128C234.921 273.141 234.934 273.151 234.949 273.157C234.964 273.163 234.981 273.164 234.997 273.16C234.31 272.409 254.683 240.136 272.723 178.004C292.633 109.203 271.262 90.4211 270.827 90.0453ZM241.697 199.158C225.962 209.046 212.33 204.694 207.952 189.864C200.549 189.129 195.013 183.665 193.018 174.425C189.818 144.43 204.874 119.915 227.363 109.344C237.02 105.414 245.284 107.644 249.941 114.836C263.281 112.021 273.239 120.862 273.893 138.192C274.723 160.153 260.291 187.466 241.697 199.158Z" fill="#455A64"/>
<path d="M273.894 138.192C274.724 160.153 260.312 187.465 241.697 199.158C225.962 209.046 212.33 204.694 207.952 189.864C212.811 190.381 218.469 188.872 224.469 185.094C241.517 174.385 254.706 149.388 253.947 129.288C253.721 123.315 252.29 118.446 249.941 114.836C263.281 112.021 273.239 120.862 273.894 138.192Z" fill="#263238"/>
<path d="M214.377 187.52L225.547 193.423L224.747 172.246L213.577 166.343L214.377 187.52Z" fill="#00904F"/>
<path opacity="0.2" d="M214.377 187.52L225.547 193.423L224.747 172.246L213.577 166.343L214.377 187.52Z" fill="black"/>
<path d="M265.082 146.881L239.295 135.963L215.511 178.058L224.747 172.246L225.547 193.423L237.259 186.06L236.735 172.206L244.404 167.385L244.928 181.232L256.653 173.855L255.853 152.678L265.082 146.881Z" fill="#00904F"/>
<path d="M228.118 130.061L239.295 135.963L215.511 178.058L204.334 172.156L228.118 130.061Z" fill="#00904F"/>
<path opacity="0.1" d="M228.118 130.061L239.295 135.963L215.511 178.058L204.334 172.156L228.118 130.061Z" fill="black"/>
<path d="M228.118 130.061L239.295 135.963L265.082 146.881L253.905 140.979L228.118 130.061Z" fill="#00904F"/>
<path opacity="0.4" d="M228.118 130.061L239.295 135.963L265.082 146.881L253.905 140.979L228.118 130.061Z" fill="white"/>
<path d="M237.259 186.06L244.928 181.232L244.404 167.385L236.735 172.206L237.259 186.06Z" fill="#00904F"/>
<path opacity="0.2" d="M237.259 186.06L244.928 181.232L244.404 167.385L236.735 172.206L237.259 186.06Z" fill="black"/>
<path d="M270.827 90.0453L270.184 89.7054C260.499 84.7346 247.854 85.9268 234.232 94.4819C213.71 107.409 196.489 133.581 188.904 160.629C185.891 171.354 184.662 177.017 185.05 187.263L185.361 195.495C186.411 223.295 218.821 259.519 233.823 272.322C234.159 272.611 234.523 272.864 234.91 273.079C234.919 273.092 234.932 273.102 234.948 273.108C234.963 273.114 234.979 273.115 234.995 273.111C235.861 273.602 236.82 273.906 237.811 274.003C238.801 274.1 239.802 273.989 240.746 273.676C241.691 273.363 242.56 272.856 243.297 272.187C244.034 271.517 244.623 270.701 245.025 269.791C256.549 243.743 290.059 165.26 288.929 135.362L288.619 127.158C287.918 108.625 281.156 95.7342 270.827 90.0453ZM207.952 189.864C207.727 189.109 207.515 188.319 207.345 187.506C206.847 185.227 206.563 182.908 206.494 180.576C205.665 158.616 220.041 131.312 238.691 119.618C240.658 118.378 242.726 117.306 244.873 116.415C246.514 115.733 248.212 115.2 249.947 114.822C263.288 112.007 273.245 120.847 273.9 138.178C274.73 160.138 260.319 187.451 241.704 199.143C225.983 209.046 212.33 204.694 207.952 189.864Z" fill="#37474F"/>
<path d="M123.391 77.7718H108.694C105.505 77.7718 102.447 76.505 100.192 74.2501C97.9368 71.9952 96.67 68.9369 96.67 65.748V62.3536C96.67 58.812 98.0769 55.4155 100.581 52.9112C103.086 50.4069 106.482 49 110.024 49C113.565 49 116.962 50.4069 119.466 52.9112C121.97 55.4155 123.377 58.812 123.377 62.3536L123.391 77.7718Z" fill="#263238"/>
<path d="M98.8045 55.7048L95.676 54.0461C95.7749 53.8375 95.915 53.6511 96.0879 53.4981C96.2609 53.3452 96.463 53.2289 96.6822 53.1562C96.9013 53.0836 97.1329 53.0562 97.363 53.0756C97.593 53.0951 97.8167 53.1609 98.0206 53.2693C98.439 53.4969 98.7538 53.8768 98.8998 54.3302C99.0457 54.7837 99.0116 55.2759 98.8045 55.7048Z" fill="#263238"/>
<path d="M99.0634 56.0547L95.774 57.2865C95.6823 57.0748 95.6345 56.8467 95.6333 56.6161C95.6322 56.3854 95.6778 56.1569 95.7674 55.9443C95.857 55.7317 95.9887 55.5395 96.1547 55.3792C96.3206 55.219 96.5173 55.094 96.7329 55.0119C97.1811 54.8559 97.6719 54.877 98.1051 55.0708C98.5383 55.2646 98.8811 55.6166 99.0634 56.0547Z" fill="#263238"/>
<path d="M128.262 94.8137L132.307 102.225L126.687 107.048L121.068 98.3341L128.262 94.8137Z" fill="#9A4A4D"/>
<path d="M116.952 78.9126C119.052 79.0946 121.263 79.9974 122.782 83.1118L129.081 96.0455C129.081 96.0455 128.017 100.301 122.474 100.868L120.277 97.4942L116.952 78.9126Z" fill="#00904F"/>
<path opacity="0.1" d="M116.952 78.9126C119.052 79.0946 121.263 79.9974 122.782 83.1118L129.081 96.0455C129.081 96.0455 128.017 100.301 122.474 100.868L120.277 97.4942L116.952 78.9126Z" fill="black"/>
<path d="M79.579 180.667C78.5222 180.121 77.8573 181.458 76.8985 182.536C76.1986 183.285 75.1838 184.482 75.0298 185.335C74.7988 186.609 75.9466 188.604 77.2134 189.71C78.4802 190.815 79.9499 191.599 80.4118 194.014C80.8738 196.428 81.8116 197.863 84.3171 198.948C87.0606 200.131 90.735 199.753 91.9807 198.948C93.4575 197.989 92.1067 196.946 90.0421 193.986C87.3406 190.123 85.234 187.358 85.234 183.754L79.579 180.667Z" fill="#263238"/>
<path d="M81.7416 177.497L79.523 180.751C79.0541 181.426 78.8704 182.259 79.0119 183.069C79.1535 183.879 79.6087 184.6 80.2789 185.076L80.3489 185.125C81.0222 185.53 81.8159 185.685 82.592 185.565C83.3681 185.445 84.0776 185.056 84.5971 184.468L88.0545 180.688L81.7416 177.497Z" fill="#B16668"/>
<path d="M121.613 115.803C121.753 119.946 122.481 135.049 119.458 142.979C117.781 147.481 115.671 151.81 113.159 155.906C112.256 157.452 86.3118 182.711 86.3118 182.711C86.3118 182.711 81.9026 182.389 81.2028 178.12C81.2028 178.12 91.8338 160.042 94.1364 156.34C96.439 152.637 104.593 146.947 104.593 146.947L103.851 112.199L121.613 115.803Z" fill="#37474F"/>
<path d="M116.755 202.334L122.242 201.086L120.425 193.095L114.938 194.342L116.755 202.334Z" fill="#B16668"/>
<path d="M112.473 128.457C114.352 126.721 116.035 124.785 117.491 122.683C121.69 116.888 121.04 111.744 121.04 111.744H119.318L96.6349 112.206C94.3813 115.894 93.8914 121.486 94.6543 126.903C96.229 138.206 105.593 157.767 105.593 157.767C105.46 159.314 104.809 165.809 106.293 171.569C108.624 180.667 114.965 196.064 114.965 196.064C114.965 196.064 118.933 196.631 120.907 194.336C120.907 194.336 117.407 163.114 116.448 155.143C115.406 146.45 112.473 128.457 112.473 128.457Z" fill="#37474F"/>
<path d="M121.627 198.374L121.445 197.59C122.026 197.702 124.49 201.789 126.932 203.567C129.606 205.513 131.929 206.661 133.126 207.542C134.722 208.711 132.426 211.119 128.472 211.329C126.519 211.434 122.964 210.839 121.865 209.803C120.766 208.767 119.976 207.004 119.108 206.304C118.24 205.604 116.476 204.904 115.881 203.945C115.559 203.42 115.503 202.111 115.545 200.992C115.587 199.872 115.608 198.836 115.965 198.85C115.965 198.969 116.098 199.452 116.098 199.452C117.131 199.974 118.28 200.227 119.437 200.187C120.361 200.131 122.082 199.914 121.627 198.374Z" fill="#263238"/>
<path d="M115.734 149.81C115.734 149.81 113.089 131.018 112.473 128.457C112.473 128.457 117.134 126.679 118.569 125.055C118.569 125.055 117.547 127.33 114.209 129.353L115.734 149.81Z" fill="#263238"/>
<path d="M101.723 149.082C101.723 149.082 104.453 156.242 105.586 157.788C105.586 157.788 105.299 163.114 105.341 164.192L103.865 165.473C103.865 165.473 103.795 161.001 104.565 158.292C103.217 155.36 102.261 152.264 101.723 149.082Z" fill="#263238"/>
<path d="M120.34 98.985C120.697 102.274 121.613 115.782 121.613 115.782C110.758 121.577 97.2929 117.735 95.2352 115.348C96.3093 111.41 98.4135 107.83 101.331 104.976L97.8318 95.1777C97.8318 95.1777 97.4118 94.1698 97.4188 94.1629C97.6358 93.7989 102.885 89.0678 100.302 81.5651C100.211 81.2928 100.183 81.0032 100.22 80.7183C100.258 80.4335 100.36 80.161 100.518 79.9214C100.677 79.6819 100.888 79.4817 101.136 79.336C101.383 79.1903 101.661 79.1029 101.947 79.0806L105.061 78.8286L113.516 78.5767C115.532 78.6956 116.973 78.8846 116.973 78.8846C118.268 80.1024 120.312 83.4268 121.634 86.8142C122.467 89.0258 123.391 92.5181 120.34 98.985Z" fill="#00904F"/>
<path opacity="0.1" d="M100.078 98.726L101.317 93.9319L102.85 105.004L99.7493 106.726L101.331 104.997L99.7283 100.525L100.078 98.726Z" fill="black"/>
<path d="M118.618 54.8159C120.018 55.6488 121.774 59.1971 121.599 66.6298C121.452 72.9287 119.409 74.4964 118.387 74.9443C117.365 75.3922 115.385 75.1193 113.488 74.7973V78.5836C113.488 78.5836 116.35 83.8817 115.707 85.9953C114.307 86.2333 112.55 85.2954 110.066 83.6087C108.217 82.2283 106.54 80.6331 105.068 78.8566L105.11 70.1571C105.11 70.1571 103.977 71.256 102.059 69.5763C100.477 68.1765 99.9594 65.8599 101.177 64.6002C101.497 64.3024 101.883 64.0849 102.303 63.9656C102.724 63.8463 103.167 63.8287 103.595 63.9141C104.024 63.9996 104.426 64.1857 104.768 64.457C105.111 64.7284 105.384 65.0773 105.565 65.475C105.565 65.475 108.638 65.594 112.718 63.3754C114.305 62.5131 115.667 61.2887 116.692 59.8014C117.717 58.3142 118.377 56.6061 118.618 54.8159Z" fill="#B16668"/>
<path d="M114.573 65.0481C114.575 65.2049 114.532 65.359 114.447 65.4912C114.363 65.6233 114.241 65.7276 114.097 65.7911C113.954 65.8545 113.795 65.8742 113.64 65.8477C113.486 65.8213 113.342 65.7498 113.228 65.6423C113.114 65.5348 113.034 65.396 112.998 65.2432C112.962 65.0905 112.972 64.9306 113.027 64.7835C113.082 64.6365 113.178 64.5088 113.305 64.4164C113.432 64.3241 113.583 64.2711 113.74 64.2642C113.954 64.2585 114.162 64.3377 114.318 64.4846C114.474 64.6314 114.565 64.834 114.573 65.0481Z" fill="#263238"/>
<g style="mix-blend-mode:multiply" opacity="0.5">
<path d="M114.776 70.3672L116.616 70.9551C116.583 71.0779 116.525 71.1927 116.446 71.2926C116.367 71.3926 116.269 71.4757 116.157 71.537C116.045 71.5984 115.923 71.6367 115.796 71.6498C115.669 71.6628 115.541 71.6503 115.42 71.613C115.172 71.5296 114.966 71.3529 114.845 71.1204C114.725 70.8879 114.7 70.6178 114.776 70.3672Z" fill="#9A4A4D"/>
</g>
<path d="M121.061 62.6126L119.472 61.5068C119.538 61.3984 119.627 61.3049 119.731 61.2319C119.835 61.1589 119.953 61.1081 120.078 61.0825C120.202 61.0569 120.331 61.0571 120.455 61.0832C120.58 61.1092 120.698 61.1605 120.802 61.2339C121.015 61.385 121.162 61.6134 121.21 61.8708C121.259 62.1281 121.205 62.3942 121.061 62.6126Z" fill="#263238"/>
<path d="M120.69 64.4742C120.698 64.5802 120.685 64.6868 120.652 64.7877C120.619 64.8887 120.566 64.982 120.496 65.0622C120.426 65.1424 120.341 65.2079 120.246 65.2547C120.151 65.3016 120.047 65.3289 119.941 65.3351C119.776 65.3503 119.611 65.3159 119.467 65.2365C119.322 65.1571 119.205 65.0362 119.13 64.8894C119.054 64.7426 119.025 64.5766 119.045 64.4129C119.065 64.2492 119.133 64.0952 119.241 63.9707C119.35 63.8463 119.493 63.7571 119.652 63.7147C119.812 63.6722 119.98 63.6785 120.136 63.7327C120.292 63.7869 120.428 63.8865 120.526 64.0186C120.625 64.1508 120.682 64.3095 120.69 64.4742Z" fill="#263238"/>
<g style="mix-blend-mode:multiply" opacity="0.5">
<path d="M116.952 64.0262L117.078 68.7924L119.591 68.0155L116.952 64.0262Z" fill="#9A4A4D"/>
</g>
<g style="mix-blend-mode:multiply" opacity="0.5">
<path d="M113.46 74.7973C111.43 74.5314 107.259 73.3346 106.608 71.6829C106.87 72.5154 107.381 73.248 108.071 73.7825C109.317 74.8463 113.46 76.0501 113.46 76.0501V74.7973Z" fill="#9A4A4D"/>
</g>
<path d="M88.5232 110.904C88.5722 110.204 89.853 102.946 90.7278 98.88L99.2803 101.498L97.8806 107.202L90.7768 114.081C90.0621 113.948 89.4274 113.542 89.0068 112.949C88.5862 112.356 88.4128 111.622 88.5232 110.904Z" fill="#B16668"/>
<path d="M101.926 79.1085C98.6436 79.3955 94.3183 79.8854 92.2607 89.2287C90.3291 97.9841 89.8531 101.043 89.8531 101.043C89.8531 101.043 92.3797 104.241 98.9165 103.891L101.317 93.9318C105.691 88.1719 104.285 84.0496 101.926 79.1085Z" fill="#00904F"/>
<path d="M129.578 104.129C130.754 101.945 131.048 101.847 131.741 101.33C132.433 100.812 136.731 100.21 138.508 100.063C140.608 99.8878 141.343 100.273 140.762 102.071C139.516 105.921 135.737 114.095 134.89 115.229C134.337 115.929 134.225 116.629 131.873 116.881C129.676 117.098 126.918 117.217 126.107 117.266C125.295 117.315 124.175 117.518 124.903 115.131C125.829 112.432 126.901 109.784 128.115 107.201C129.018 105.27 129.578 104.129 129.578 104.129Z" fill="#263238"/>
<path d="M97.9087 107.201C97.9087 107.201 116.917 109.21 119.374 108.447C121.83 107.684 125.148 105.221 126.925 104.206C128.703 103.191 129.977 103.1 129.977 103.506C129.977 103.912 128.458 106.257 128.115 107.215C127.772 108.174 129.753 108.174 132.356 107.579C134.96 106.984 136.003 105.48 136.682 106.348C137.361 107.215 135.24 111.562 130.915 113.178C126.59 114.795 123.377 113.724 119.808 113.878C116.238 114.032 95.7601 115.628 90.798 114.067C90.6726 113.277 90.7662 112.468 91.0685 111.728C91.3708 110.988 91.8703 110.344 92.5127 109.868C94.1171 108.631 95.9513 107.724 97.9087 107.201Z" fill="#B16668"/>
<path d="M195.964 24.2223L201.178 21.2129C201.149 21.0018 201.135 20.789 201.136 20.576V19.0643C201.214 17.6044 201.636 16.1836 202.365 14.9167C203.095 13.6498 204.112 12.5724 205.335 11.7716C205.7 11.5259 206.11 11.3564 206.542 11.2735C206.974 11.1905 207.418 11.1956 207.848 11.2887C208.233 7.46736 210.878 3.14914 214.098 1.29447C217.597 -0.714165 220.396 0.909542 220.396 4.93382V7.18741C220.383 8.28587 220.204 9.37602 219.864 10.4208L224.197 7.92228C225.484 7.18041 226.527 7.7823 226.527 9.27303C226.484 10.0829 226.25 10.8712 225.845 11.574C225.44 12.2768 224.875 12.8744 224.197 13.3183L195.964 29.6184C194.676 30.3602 193.633 29.7583 193.633 28.2676C193.677 27.4577 193.91 26.6694 194.315 25.9666C194.72 25.2638 195.285 24.6663 195.964 24.2223Z" fill="#F0F0F0"/>
<path d="M170.999 59.223L174.933 56.9484C174.91 56.7884 174.898 56.627 174.898 56.4655V55.3317C174.958 54.2287 175.277 53.1554 175.829 52.1985C176.381 51.2417 177.15 50.4281 178.075 49.8237C178.35 49.6376 178.66 49.5094 178.986 49.4469C179.312 49.3843 179.647 49.3887 179.972 49.4597C180.166 47.936 180.689 46.4726 181.503 45.1701C182.317 43.8677 183.404 42.7572 184.689 41.9151C187.313 40.3964 189.448 41.6281 189.448 44.6586V46.3663C189.437 47.194 189.3 48.0152 189.042 48.8018L192.31 46.9192C193.283 46.3593 194.074 46.8142 194.074 47.934C194.04 48.5463 193.863 49.1422 193.557 49.6735C193.251 50.2048 192.824 50.6566 192.31 50.9924L170.999 63.2892C170.026 63.8561 169.236 63.4012 169.236 62.2744C169.269 61.6629 169.446 61.0678 169.752 60.5376C170.059 60.0073 170.486 59.5569 170.999 59.223Z" fill="#F0F0F0"/>
</svg>
